<svg xmlns="http://www.w3.org/2000/svg" width="320" height="160" viewBox="0 0 320 160">
  <rect width="320" height="160" fill="#0e0e10"/>
  <g fill="#ffffff">
    <circle cx="12" cy="22" r="1" opacity="0.5"/>
    <circle cx="38" cy="120" r="0.8" opacity="0.35"/>
    <circle cx="60" cy="48" r="1.2" opacity="0.6"/>
    <circle cx="84" cy="14" r="0.7" opacity="0.3"/>
    <circle cx="100" cy="96" r="1" opacity="0.45"/>
    <circle cx="128" cy="60" r="0.6" opacity="0.3"/>
    <circle cx="150" cy="132" r="1.1" opacity="0.5"/>
    <circle cx="172" cy="30" r="0.8" opacity="0.4"/>
    <circle cx="196" cy="104" r="1" opacity="0.55"/>
    <circle cx="214" cy="56" r="0.6" opacity="0.3"/>
    <circle cx="238" cy="18" r="1.2" opacity="0.5"/>
    <circle cx="262" cy="128" r="0.7" opacity="0.35"/>
    <circle cx="286" cy="74" r="1" opacity="0.5"/>
    <circle cx="306" cy="40" r="0.8" opacity="0.4"/>
    <circle cx="22" cy="78" r="0.6" opacity="0.3"/>
    <circle cx="46" cy="150" r="0.7" opacity="0.3"/>
    <circle cx="118" cy="140" r="0.6" opacity="0.3"/>
    <circle cx="180" cy="78" r="0.7" opacity="0.35"/>
    <circle cx="252" cy="92" r="0.6" opacity="0.3"/>
    <circle cx="296" cy="116" r="0.7" opacity="0.35"/>
  </g>
  <g fill="#ffffff" opacity="0.7">
    <path d="M70 100 l1.6 4.4 4.4 1.6 -4.4 1.6 -1.6 4.4 -1.6 -4.4 -4.4 -1.6 4.4 -1.6z"/>
    <path d="M210 36 l1.3 3.6 3.6 1.3 -3.6 1.3 -1.3 3.6 -1.3 -3.6 -3.6 -1.3 3.6 -1.3z"/>
    <path d="M150 70 l1 2.8 2.8 1 -2.8 1 -1 2.8 -1 -2.8 -2.8 -1 2.8 -1z"/>
  </g>
</svg>
